<?xml version="1.0" encoding="utf-8" standalone="no"?>
<!DOCTYPE svg PUBLIC "-//W3C//DTD SVG 1.1//EN"
  "http://www.w3.org/Graphics/SVG/1.1/DTD/svg11.dtd">
<svg xmlns:xlink="http://www.w3.org/1999/xlink" width="460.8pt" height="345.6pt" viewBox="0 0 460.8 345.6" xmlns="http://www.w3.org/2000/svg" version="1.1">
 <metadata>
  <rdf:RDF xmlns:dc="http://purl.org/dc/elements/1.1/" xmlns:cc="http://creativecommons.org/ns#" xmlns:rdf="http://www.w3.org/1999/02/22-rdf-syntax-ns#">
   <cc:Work>
    <dc:type rdf:resource="http://purl.org/dc/dcmitype/StillImage"/>
    <dc:date>2024-05-13T19:33:26.635585</dc:date>
    <dc:format>image/svg+xml</dc:format>
    <dc:creator>
     <cc:Agent>
      <dc:title>Matplotlib v3.7.1, https://matplotlib.org/</dc:title>
     </cc:Agent>
    </dc:creator>
   </cc:Work>
  </rdf:RDF>
 </metadata>
 <defs>
  <style type="text/css">*{stroke-linejoin: round; stroke-linecap: butt}</style>
 </defs>
 <g id="figure_1">
  <g id="patch_1">
   <path d="M 0 345.6 
L 460.8 345.6 
L 460.8 0 
L 0 0 
z
" style="fill: #ffffff"/>
  </g>
  <g id="axes_1">
   <g id="patch_2">
    <path d="M 57.6 307.584 
L 414.72 307.584 
L 414.72 41.472 
L 57.6 41.472 
z
" style="fill: #ffffff"/>
   </g>
   <g id="PathCollection_1">
    <defs>
     <path id="m66192eed21" d="M 0 3 
C 0.795609 3 1.55874 2.683901 2.12132 2.12132 
C 2.683901 1.55874 3 0.795609 3 0 
C 3 -0.795609 2.683901 -1.55874 2.12132 -2.12132 
C 1.55874 -2.683901 0.795609 -3 0 -3 
C -0.795609 -3 -1.55874 -2.683901 -2.12132 -2.12132 
C -2.683901 -1.55874 -3 -0.795609 -3 0 
C -3 0.795609 -2.683901 1.55874 -2.12132 2.12132 
C -1.55874 2.683901 -0.795609 3 0 3 
z
" style="stroke: #008000"/>
    </defs>
    <g clip-path="url(#pb43937004a)">
     <use xlink:href="#m66192eed21" x="73.832727" y="292.633488" style="fill: #008000; stroke: #008000"/>
     <use xlink:href="#m66192eed21" x="73.832727" y="292.616264" style="fill: #008000; stroke: #008000"/>
     <use xlink:href="#m66192eed21" x="73.832727" y="293.335647" style="fill: #008000; stroke: #008000"/>
     <use xlink:href="#m66192eed21" x="73.832727" y="289.682366" style="fill: #008000; stroke: #008000"/>
     <use xlink:href="#m66192eed21" x="73.832727" y="292.122024" style="fill: #008000; stroke: #008000"/>
     <use xlink:href="#m66192eed21" x="73.832727" y="291.906096" style="fill: #008000; stroke: #008000"/>
     <use xlink:href="#m66192eed21" x="73.832727" y="295.488" style="fill: #008000; stroke: #008000"/>
     <use xlink:href="#m66192eed21" x="73.832727" y="289.613389" style="fill: #008000; stroke: #008000"/>
     <use xlink:href="#m66192eed21" x="73.832727" y="289.60099" style="fill: #008000; stroke: #008000"/>
     <use xlink:href="#m66192eed21" x="73.832727" y="291.334886" style="fill: #008000; stroke: #008000"/>
     <use xlink:href="#m66192eed21" x="138.763636" y="255.911804" style="fill: #008000; stroke: #008000"/>
     <use xlink:href="#m66192eed21" x="138.763636" y="254.691348" style="fill: #008000; stroke: #008000"/>
     <use xlink:href="#m66192eed21" x="138.763636" y="258.275375" style="fill: #008000; stroke: #008000"/>
     <use xlink:href="#m66192eed21" x="138.763636" y="266.952669" style="fill: #008000; stroke: #008000"/>
     <use xlink:href="#m66192eed21" x="138.763636" y="262.804355" style="fill: #008000; stroke: #008000"/>
     <use xlink:href="#m66192eed21" x="138.763636" y="258.460104" style="fill: #008000; stroke: #008000"/>
     <use xlink:href="#m66192eed21" x="138.763636" y="256.675072" style="fill: #008000; stroke: #008000"/>
     <use xlink:href="#m66192eed21" x="138.763636" y="259.796446" style="fill: #008000; stroke: #008000"/>
     <use xlink:href="#m66192eed21" x="138.763636" y="259.472717" style="fill: #008000; stroke: #008000"/>
     <use xlink:href="#m66192eed21" x="138.763636" y="265.134488" style="fill: #008000; stroke: #008000"/>
     <use xlink:href="#m66192eed21" x="203.694545" y="222.8558" style="fill: #008000; stroke: #008000"/>
     <use xlink:href="#m66192eed21" x="203.694545" y="234.091484" style="fill: #008000; stroke: #008000"/>
     <use xlink:href="#m66192eed21" x="203.694545" y="230.098826" style="fill: #008000; stroke: #008000"/>
     <use xlink:href="#m66192eed21" x="203.694545" y="231.384803" style="fill: #008000; stroke: #008000"/>
     <use xlink:href="#m66192eed21" x="203.694545" y="233.247466" style="fill: #008000; stroke: #008000"/>
     <use xlink:href="#m66192eed21" x="203.694545" y="218.869931" style="fill: #008000; stroke: #008000"/>
     <use xlink:href="#m66192eed21" x="203.694545" y="213.809547" style="fill: #008000; stroke: #008000"/>
     <use xlink:href="#m66192eed21" x="203.694545" y="238.276263" style="fill: #008000; stroke: #008000"/>
     <use xlink:href="#m66192eed21" x="203.694545" y="220.691346" style="fill: #008000; stroke: #008000"/>
     <use xlink:href="#m66192eed21" x="203.694545" y="234.820124" style="fill: #008000; stroke: #008000"/>
     <use xlink:href="#m66192eed21" x="268.625453" y="192.581848" style="fill: #008000; stroke: #008000"/>
     <use xlink:href="#m66192eed21" x="268.625453" y="176.095398" style="fill: #008000; stroke: #008000"/>
     <use xlink:href="#m66192eed21" x="268.625453" y="185.177433" style="fill: #008000; stroke: #008000"/>
     <use xlink:href="#m66192eed21" x="268.625453" y="172.278945" style="fill: #008000; stroke: #008000"/>
     <use xlink:href="#m66192eed21" x="268.625453" y="183.148948" style="fill: #008000; stroke: #008000"/>
     <use xlink:href="#m66192eed21" x="268.625453" y="189.18668" style="fill: #008000; stroke: #008000"/>
     <use xlink:href="#m66192eed21" x="268.625453" y="189.651329" style="fill: #008000; stroke: #008000"/>
     <use xlink:href="#m66192eed21" x="268.625453" y="184.569409" style="fill: #008000; stroke: #008000"/>
     <use xlink:href="#m66192eed21" x="268.625453" y="171.922919" style="fill: #008000; stroke: #008000"/>
     <use xlink:href="#m66192eed21" x="268.625453" y="197.770568" style="fill: #008000; stroke: #008000"/>
     <use xlink:href="#m66192eed21" x="333.556362" y="153.818908" style="fill: #008000; stroke: #008000"/>
     <use xlink:href="#m66192eed21" x="333.556362" y="109.080577" style="fill: #008000; stroke: #008000"/>
     <use xlink:href="#m66192eed21" x="333.556362" y="119.767944" style="fill: #008000; stroke: #008000"/>
     <use xlink:href="#m66192eed21" x="333.556362" y="151.549043" style="fill: #008000; stroke: #008000"/>
     <use xlink:href="#m66192eed21" x="333.556362" y="114.889111" style="fill: #008000; stroke: #008000"/>
     <use xlink:href="#m66192eed21" x="333.556362" y="147.44048" style="fill: #008000; stroke: #008000"/>
     <use xlink:href="#m66192eed21" x="333.556362" y="177.841369" style="fill: #008000; stroke: #008000"/>
     <use xlink:href="#m66192eed21" x="333.556362" y="134.106457" style="fill: #008000; stroke: #008000"/>
     <use xlink:href="#m66192eed21" x="333.556362" y="138.635021" style="fill: #008000; stroke: #008000"/>
     <use xlink:href="#m66192eed21" x="333.556362" y="180.170227" style="fill: #008000; stroke: #008000"/>
     <use xlink:href="#m66192eed21" x="398.487271" y="66.20547" style="fill: #008000; stroke: #008000"/>
     <use xlink:href="#m66192eed21" x="398.487271" y="74.008638" style="fill: #008000; stroke: #008000"/>
     <use xlink:href="#m66192eed21" x="398.487271" y="53.568" style="fill: #008000; stroke: #008000"/>
     <use xlink:href="#m66192eed21" x="398.487271" y="95.489737" style="fill: #008000; stroke: #008000"/>
     <use xlink:href="#m66192eed21" x="398.487271" y="56.090051" style="fill: #008000; stroke: #008000"/>
     <use xlink:href="#m66192eed21" x="398.487271" y="64.024889" style="fill: #008000; stroke: #008000"/>
     <use xlink:href="#m66192eed21" x="398.487271" y="77.472583" style="fill: #008000; stroke: #008000"/>
     <use xlink:href="#m66192eed21" x="398.487271" y="80.820175" style="fill: #008000; stroke: #008000"/>
     <use xlink:href="#m66192eed21" x="398.487271" y="75.421501" style="fill: #008000; stroke: #008000"/>
     <use xlink:href="#m66192eed21" x="398.487271" y="71.193892" style="fill: #008000; stroke: #008000"/>
    </g>
   </g>
   <g id="matplotlib.axis_1">
    <g id="xtick_1">
     <g id="line2d_1">
      <path d="M 76.429964 307.584 
L 76.429964 41.472 
" clip-path="url(#pb43937004a)" style="fill: none; stroke: #b0b0b0; stroke-width: 0.8; stroke-linecap: square"/>
     </g>
     <g id="line2d_2">
      <defs>
       <path id="m926c53fa85" d="M 0 0 
L 0 3.5 
" style="stroke: #000000; stroke-width: 0.8"/>
      </defs>
      <g>
       <use xlink:href="#m926c53fa85" x="76.429964" y="307.584" style="stroke: #000000; stroke-width: 0.8"/>
      </g>
     </g>
     <g id="text_1">
      <!-- 100 -->
      <g transform="translate(66.886214 322.182437) scale(0.1 -0.1)">
       <defs>
        <path id="DejaVuSans-31" d="M 794 531 
L 1825 531 
L 1825 4091 
L 703 3866 
L 703 4441 
L 1819 4666 
L 2450 4666 
L 2450 531 
L 3481 531 
L 3481 0 
L 794 0 
L 794 531 
z
" transform="scale(0.015625)"/>
        <path id="DejaVuSans-30" d="M 2034 4250 
Q 1547 4250 1301 3770 
Q 1056 3291 1056 2328 
Q 1056 1369 1301 889 
Q 1547 409 2034 409 
Q 2525 409 2770 889 
Q 3016 1369 3016 2328 
Q 3016 3291 2770 3770 
Q 2525 4250 2034 4250 
z
M 2034 4750 
Q 2819 4750 3233 4129 
Q 3647 3509 3647 2328 
Q 3647 1150 3233 529 
Q 2819 -91 2034 -91 
Q 1250 -91 836 529 
Q 422 1150 422 2328 
Q 422 3509 836 4129 
Q 1250 4750 2034 4750 
z
" transform="scale(0.015625)"/>
       </defs>
       <use xlink:href="#DejaVuSans-31"/>
       <use xlink:href="#DejaVuSans-30" x="63.623047"/>
       <use xlink:href="#DejaVuSans-30" x="127.246094"/>
      </g>
     </g>
    </g>
    <g id="xtick_2">
     <g id="line2d_3">
      <path d="M 143.958109 307.584 
L 143.958109 41.472 
" clip-path="url(#pb43937004a)" style="fill: none; stroke: #b0b0b0; stroke-width: 0.8; stroke-linecap: square"/>
     </g>
     <g id="line2d_4">
      <g>
       <use xlink:href="#m926c53fa85" x="143.958109" y="307.584" style="stroke: #000000; stroke-width: 0.8"/>
      </g>
     </g>
     <g id="text_2">
      <!-- 200 -->
      <g transform="translate(134.414359 322.182437) scale(0.1 -0.1)">
       <defs>
        <path id="DejaVuSans-32" d="M 1228 531 
L 3431 531 
L 3431 0 
L 469 0 
L 469 531 
Q 828 903 1448 1529 
Q 2069 2156 2228 2338 
Q 2531 2678 2651 2914 
Q 2772 3150 2772 3378 
Q 2772 3750 2511 3984 
Q 2250 4219 1831 4219 
Q 1534 4219 1204 4116 
Q 875 4013 500 3803 
L 500 4441 
Q 881 4594 1212 4672 
Q 1544 4750 1819 4750 
Q 2544 4750 2975 4387 
Q 3406 4025 3406 3419 
Q 3406 3131 3298 2873 
Q 3191 2616 2906 2266 
Q 2828 2175 2409 1742 
Q 1991 1309 1228 531 
z
" transform="scale(0.015625)"/>
       </defs>
       <use xlink:href="#DejaVuSans-32"/>
       <use xlink:href="#DejaVuSans-30" x="63.623047"/>
       <use xlink:href="#DejaVuSans-30" x="127.246094"/>
      </g>
     </g>
    </g>
    <g id="xtick_3">
     <g id="line2d_5">
      <path d="M 211.486254 307.584 
L 211.486254 41.472 
" clip-path="url(#pb43937004a)" style="fill: none; stroke: #b0b0b0; stroke-width: 0.8; stroke-linecap: square"/>
     </g>
     <g id="line2d_6">
      <g>
       <use xlink:href="#m926c53fa85" x="211.486254" y="307.584" style="stroke: #000000; stroke-width: 0.8"/>
      </g>
     </g>
     <g id="text_3">
      <!-- 300 -->
      <g transform="translate(201.942504 322.182437) scale(0.1 -0.1)">
       <defs>
        <path id="DejaVuSans-33" d="M 2597 2516 
Q 3050 2419 3304 2112 
Q 3559 1806 3559 1356 
Q 3559 666 3084 287 
Q 2609 -91 1734 -91 
Q 1441 -91 1130 -33 
Q 819 25 488 141 
L 488 750 
Q 750 597 1062 519 
Q 1375 441 1716 441 
Q 2309 441 2620 675 
Q 2931 909 2931 1356 
Q 2931 1769 2642 2001 
Q 2353 2234 1838 2234 
L 1294 2234 
L 1294 2753 
L 1863 2753 
Q 2328 2753 2575 2939 
Q 2822 3125 2822 3475 
Q 2822 3834 2567 4026 
Q 2313 4219 1838 4219 
Q 1578 4219 1281 4162 
Q 984 4106 628 3988 
L 628 4550 
Q 988 4650 1302 4700 
Q 1616 4750 1894 4750 
Q 2613 4750 3031 4423 
Q 3450 4097 3450 3541 
Q 3450 3153 3228 2886 
Q 3006 2619 2597 2516 
z
" transform="scale(0.015625)"/>
       </defs>
       <use xlink:href="#DejaVuSans-33"/>
       <use xlink:href="#DejaVuSans-30" x="63.623047"/>
       <use xlink:href="#DejaVuSans-30" x="127.246094"/>
      </g>
     </g>
    </g>
    <g id="xtick_4">
     <g id="line2d_7">
      <path d="M 279.014399 307.584 
L 279.014399 41.472 
" clip-path="url(#pb43937004a)" style="fill: none; stroke: #b0b0b0; stroke-width: 0.8; stroke-linecap: square"/>
     </g>
     <g id="line2d_8">
      <g>
       <use xlink:href="#m926c53fa85" x="279.014399" y="307.584" style="stroke: #000000; stroke-width: 0.8"/>
      </g>
     </g>
     <g id="text_4">
      <!-- 400 -->
      <g transform="translate(269.470649 322.182437) scale(0.1 -0.1)">
       <defs>
        <path id="DejaVuSans-34" d="M 2419 4116 
L 825 1625 
L 2419 1625 
L 2419 4116 
z
M 2253 4666 
L 3047 4666 
L 3047 1625 
L 3713 1625 
L 3713 1100 
L 3047 1100 
L 3047 0 
L 2419 0 
L 2419 1100 
L 313 1100 
L 313 1709 
L 2253 4666 
z
" transform="scale(0.015625)"/>
       </defs>
       <use xlink:href="#DejaVuSans-34"/>
       <use xlink:href="#DejaVuSans-30" x="63.623047"/>
       <use xlink:href="#DejaVuSans-30" x="127.246094"/>
      </g>
     </g>
    </g>
    <g id="xtick_5">
     <g id="line2d_9">
      <path d="M 346.542544 307.584 
L 346.542544 41.472 
" clip-path="url(#pb43937004a)" style="fill: none; stroke: #b0b0b0; stroke-width: 0.8; stroke-linecap: square"/>
     </g>
     <g id="line2d_10">
      <g>
       <use xlink:href="#m926c53fa85" x="346.542544" y="307.584" style="stroke: #000000; stroke-width: 0.8"/>
      </g>
     </g>
     <g id="text_5">
      <!-- 500 -->
      <g transform="translate(336.998794 322.182437) scale(0.1 -0.1)">
       <defs>
        <path id="DejaVuSans-35" d="M 691 4666 
L 3169 4666 
L 3169 4134 
L 1269 4134 
L 1269 2991 
Q 1406 3038 1543 3061 
Q 1681 3084 1819 3084 
Q 2600 3084 3056 2656 
Q 3513 2228 3513 1497 
Q 3513 744 3044 326 
Q 2575 -91 1722 -91 
Q 1428 -91 1123 -41 
Q 819 9 494 109 
L 494 744 
Q 775 591 1075 516 
Q 1375 441 1709 441 
Q 2250 441 2565 725 
Q 2881 1009 2881 1497 
Q 2881 1984 2565 2268 
Q 2250 2553 1709 2553 
Q 1456 2553 1204 2497 
Q 953 2441 691 2322 
L 691 4666 
z
" transform="scale(0.015625)"/>
       </defs>
       <use xlink:href="#DejaVuSans-35"/>
       <use xlink:href="#DejaVuSans-30" x="63.623047"/>
       <use xlink:href="#DejaVuSans-30" x="127.246094"/>
      </g>
     </g>
    </g>
    <g id="xtick_6">
     <g id="line2d_11">
      <path d="M 414.070689 307.584 
L 414.070689 41.472 
" clip-path="url(#pb43937004a)" style="fill: none; stroke: #b0b0b0; stroke-width: 0.8; stroke-linecap: square"/>
     </g>
     <g id="line2d_12">
      <g>
       <use xlink:href="#m926c53fa85" x="414.070689" y="307.584" style="stroke: #000000; stroke-width: 0.8"/>
      </g>
     </g>
     <g id="text_6">
      <!-- 600 -->
      <g transform="translate(404.526939 322.182437) scale(0.1 -0.1)">
       <defs>
        <path id="DejaVuSans-36" d="M 2113 2584 
Q 1688 2584 1439 2293 
Q 1191 2003 1191 1497 
Q 1191 994 1439 701 
Q 1688 409 2113 409 
Q 2538 409 2786 701 
Q 3034 994 3034 1497 
Q 3034 2003 2786 2293 
Q 2538 2584 2113 2584 
z
M 3366 4563 
L 3366 3988 
Q 3128 4100 2886 4159 
Q 2644 4219 2406 4219 
Q 1781 4219 1451 3797 
Q 1122 3375 1075 2522 
Q 1259 2794 1537 2939 
Q 1816 3084 2150 3084 
Q 2853 3084 3261 2657 
Q 3669 2231 3669 1497 
Q 3669 778 3244 343 
Q 2819 -91 2113 -91 
Q 1303 -91 875 529 
Q 447 1150 447 2328 
Q 447 3434 972 4092 
Q 1497 4750 2381 4750 
Q 2619 4750 2861 4703 
Q 3103 4656 3366 4563 
z
" transform="scale(0.015625)"/>
       </defs>
       <use xlink:href="#DejaVuSans-36"/>
       <use xlink:href="#DejaVuSans-30" x="63.623047"/>
       <use xlink:href="#DejaVuSans-30" x="127.246094"/>
      </g>
     </g>
    </g>
    <g id="text_7">
     <!-- $\lambda_0$, пакетов в секунду -->
     <g transform="translate(178.66 335.862125) scale(0.1 -0.1)">
      <defs>
       <path id="DejaVuSans-Oblique-3bb" d="M 2350 4316 
L 3125 0 
L 2516 0 
L 2038 2588 
L 328 0 
L -281 0 
L 1903 3356 
L 1794 3975 
Q 1725 4369 1391 4369 
L 1091 4369 
L 1184 4863 
L 1550 4856 
Q 2253 4847 2350 4316 
z
" transform="scale(0.015625)"/>
       <path id="DejaVuSans-2c" d="M 750 794 
L 1409 794 
L 1409 256 
L 897 -744 
L 494 -744 
L 750 256 
L 750 794 
z
" transform="scale(0.015625)"/>
       <path id="DejaVuSans-20" transform="scale(0.015625)"/>
       <path id="DejaVuSans-43f" d="M 3603 3500 
L 3603 0 
L 3025 0 
L 3025 3041 
L 1159 3041 
L 1159 0 
L 581 0 
L 581 3500 
L 3603 3500 
z
" transform="scale(0.015625)"/>
       <path id="DejaVuSans-430" d="M 2194 1759 
Q 1497 1759 1228 1600 
Q 959 1441 959 1056 
Q 959 750 1161 570 
Q 1363 391 1709 391 
Q 2188 391 2477 730 
Q 2766 1069 2766 1631 
L 2766 1759 
L 2194 1759 
z
M 3341 1997 
L 3341 0 
L 2766 0 
L 2766 531 
Q 2569 213 2275 61 
Q 1981 -91 1556 -91 
Q 1019 -91 701 211 
Q 384 513 384 1019 
Q 384 1609 779 1909 
Q 1175 2209 1959 2209 
L 2766 2209 
L 2766 2266 
Q 2766 2663 2505 2880 
Q 2244 3097 1772 3097 
Q 1472 3097 1187 3025 
Q 903 2953 641 2809 
L 641 3341 
Q 956 3463 1253 3523 
Q 1550 3584 1831 3584 
Q 2591 3584 2966 3190 
Q 3341 2797 3341 1997 
z
" transform="scale(0.015625)"/>
       <path id="DejaVuSans-43a" d="M 581 3500 
L 1153 3500 
L 1153 1856 
L 2775 3500 
L 3481 3500 
L 2144 2147 
L 3653 0 
L 3009 0 
L 1769 1766 
L 1153 1141 
L 1153 0 
L 581 0 
L 581 3500 
z
" transform="scale(0.015625)"/>
       <path id="DejaVuSans-435" d="M 3597 1894 
L 3597 1613 
L 953 1613 
Q 991 1019 1311 708 
Q 1631 397 2203 397 
Q 2534 397 2845 478 
Q 3156 559 3463 722 
L 3463 178 
Q 3153 47 2828 -22 
Q 2503 -91 2169 -91 
Q 1331 -91 842 396 
Q 353 884 353 1716 
Q 353 2575 817 3079 
Q 1281 3584 2069 3584 
Q 2775 3584 3186 3129 
Q 3597 2675 3597 1894 
z
M 3022 2063 
Q 3016 2534 2758 2815 
Q 2500 3097 2075 3097 
Q 1594 3097 1305 2825 
Q 1016 2553 972 2059 
L 3022 2063 
z
" transform="scale(0.015625)"/>
       <path id="DejaVuSans-442" d="M 188 3500 
L 3541 3500 
L 3541 3041 
L 2147 3041 
L 2147 0 
L 1581 0 
L 1581 3041 
L 188 3041 
L 188 3500 
z
" transform="scale(0.015625)"/>
       <path id="DejaVuSans-43e" d="M 1959 3097 
Q 1497 3097 1228 2736 
Q 959 2375 959 1747 
Q 959 1119 1226 758 
Q 1494 397 1959 397 
Q 2419 397 2687 759 
Q 2956 1122 2956 1747 
Q 2956 2369 2687 2733 
Q 2419 3097 1959 3097 
z
M 1959 3584 
Q 2709 3584 3137 3096 
Q 3566 2609 3566 1747 
Q 3566 888 3137 398 
Q 2709 -91 1959 -91 
Q 1206 -91 779 398 
Q 353 888 353 1747 
Q 353 2609 779 3096 
Q 1206 3584 1959 3584 
z
" transform="scale(0.015625)"/>
       <path id="DejaVuSans-432" d="M 1156 1613 
L 1156 459 
L 1975 459 
Q 2369 459 2575 607 
Q 2781 756 2781 1038 
Q 2781 1319 2575 1466 
Q 2369 1613 1975 1613 
L 1156 1613 
z
M 1156 3041 
L 1156 2072 
L 1913 2072 
Q 2238 2072 2444 2201 
Q 2650 2331 2650 2563 
Q 2650 2794 2444 2917 
Q 2238 3041 1913 3041 
L 1156 3041 
z
M 581 3500 
L 1950 3500 
Q 2566 3500 2897 3275 
Q 3228 3050 3228 2634 
Q 3228 2313 3059 2123 
Q 2891 1934 2559 1888 
Q 2956 1813 3175 1575 
Q 3394 1338 3394 981 
Q 3394 513 3033 256 
Q 2672 0 2003 0 
L 581 0 
L 581 3500 
z
" transform="scale(0.015625)"/>
       <path id="DejaVuSans-441" d="M 3122 3366 
L 3122 2828 
Q 2878 2963 2633 3030 
Q 2388 3097 2138 3097 
Q 1578 3097 1268 2742 
Q 959 2388 959 1747 
Q 959 1106 1268 751 
Q 1578 397 2138 397 
Q 2388 397 2633 464 
Q 2878 531 3122 666 
L 3122 134 
Q 2881 22 2623 -34 
Q 2366 -91 2075 -91 
Q 1284 -91 818 406 
Q 353 903 353 1747 
Q 353 2603 823 3093 
Q 1294 3584 2113 3584 
Q 2378 3584 2631 3529 
Q 2884 3475 3122 3366 
z
" transform="scale(0.015625)"/>
       <path id="DejaVuSans-443" d="M 2059 -325 
Q 1816 -950 1584 -1140 
Q 1353 -1331 966 -1331 
L 506 -1331 
L 506 -850 
L 844 -850 
Q 1081 -850 1212 -737 
Q 1344 -625 1503 -206 
L 1606 56 
L 191 3500 
L 800 3500 
L 1894 763 
L 2988 3500 
L 3597 3500 
L 2059 -325 
z
" transform="scale(0.015625)"/>
       <path id="DejaVuSans-43d" d="M 581 3500 
L 1159 3500 
L 1159 2072 
L 3025 2072 
L 3025 3500 
L 3603 3500 
L 3603 0 
L 3025 0 
L 3025 1613 
L 1159 1613 
L 1159 0 
L 581 0 
L 581 3500 
z
" transform="scale(0.015625)"/>
       <path id="DejaVuSans-434" d="M 1384 459 
L 3053 459 
L 3053 3041 
L 1844 3041 
L 1844 2603 
Q 1844 1316 1475 628 
L 1384 459 
z
M 550 459 
Q 834 584 959 850 
Q 1266 1509 1266 2838 
L 1266 3500 
L 3631 3500 
L 3631 459 
L 4091 459 
L 4091 -884 
L 3631 -884 
L 3631 0 
L 794 0 
L 794 -884 
L 334 -884 
L 334 459 
L 550 459 
z
" transform="scale(0.015625)"/>
      </defs>
      <use xlink:href="#DejaVuSans-Oblique-3bb" transform="translate(0 0.015625)"/>
      <use xlink:href="#DejaVuSans-30" transform="translate(59.179688 -16.390625) scale(0.7)"/>
      <use xlink:href="#DejaVuSans-2c" transform="translate(106.450195 0.015625)"/>
      <use xlink:href="#DejaVuSans-20" transform="translate(138.237305 0.015625)"/>
      <use xlink:href="#DejaVuSans-43f" transform="translate(170.024414 0.015625)"/>
      <use xlink:href="#DejaVuSans-430" transform="translate(235.405273 0.015625)"/>
      <use xlink:href="#DejaVuSans-43a" transform="translate(296.68457 0.015625)"/>
      <use xlink:href="#DejaVuSans-435" transform="translate(357.084961 0.015625)"/>
      <use xlink:href="#DejaVuSans-442" transform="translate(418.608398 0.015625)"/>
      <use xlink:href="#DejaVuSans-43e" transform="translate(476.860352 0.015625)"/>
      <use xlink:href="#DejaVuSans-432" transform="translate(538.041992 0.015625)"/>
      <use xlink:href="#DejaVuSans-20" transform="translate(596.977539 0.015625)"/>
      <use xlink:href="#DejaVuSans-432" transform="translate(628.764648 0.015625)"/>
      <use xlink:href="#DejaVuSans-20" transform="translate(687.700195 0.015625)"/>
      <use xlink:href="#DejaVuSans-441" transform="translate(719.487305 0.015625)"/>
      <use xlink:href="#DejaVuSans-435" transform="translate(774.467773 0.015625)"/>
      <use xlink:href="#DejaVuSans-43a" transform="translate(835.991211 0.015625)"/>
      <use xlink:href="#DejaVuSans-443" transform="translate(896.391602 0.015625)"/>
      <use xlink:href="#DejaVuSans-43d" transform="translate(955.571289 0.015625)"/>
      <use xlink:href="#DejaVuSans-434" transform="translate(1020.952148 0.015625)"/>
      <use xlink:href="#DejaVuSans-443" transform="translate(1090.092773 0.015625)"/>
     </g>
    </g>
   </g>
   <g id="matplotlib.axis_2">
    <g id="ytick_1">
     <g id="line2d_13">
      <path d="M 57.6 285.342383 
L 414.72 285.342383 
" clip-path="url(#pb43937004a)" style="fill: none; stroke: #b0b0b0; stroke-width: 0.8; stroke-linecap: square"/>
     </g>
     <g id="line2d_14">
      <defs>
       <path id="m82d34d071a" d="M 0 0 
L -3.5 0 
" style="stroke: #000000; stroke-width: 0.8"/>
      </defs>
      <g>
       <use xlink:href="#m82d34d071a" x="57.6" y="285.342383" style="stroke: #000000; stroke-width: 0.8"/>
      </g>
     </g>
     <g id="text_8">
      <!-- 0.25 -->
      <g transform="translate(28.334375 289.141602) scale(0.1 -0.1)">
       <defs>
        <path id="DejaVuSans-2e" d="M 684 794 
L 1344 794 
L 1344 0 
L 684 0 
L 684 794 
z
" transform="scale(0.015625)"/>
       </defs>
       <use xlink:href="#DejaVuSans-30"/>
       <use xlink:href="#DejaVuSans-2e" x="63.623047"/>
       <use xlink:href="#DejaVuSans-32" x="95.410156"/>
       <use xlink:href="#DejaVuSans-35" x="159.033203"/>
      </g>
     </g>
    </g>
    <g id="ytick_2">
     <g id="line2d_15">
      <path d="M 57.6 250.568071 
L 414.72 250.568071 
" clip-path="url(#pb43937004a)" style="fill: none; stroke: #b0b0b0; stroke-width: 0.8; stroke-linecap: square"/>
     </g>
     <g id="line2d_16">
      <g>
       <use xlink:href="#m82d34d071a" x="57.6" y="250.568071" style="stroke: #000000; stroke-width: 0.8"/>
      </g>
     </g>
     <g id="text_9">
      <!-- 0.50 -->
      <g transform="translate(28.334375 254.367289) scale(0.1 -0.1)">
       <use xlink:href="#DejaVuSans-30"/>
       <use xlink:href="#DejaVuSans-2e" x="63.623047"/>
       <use xlink:href="#DejaVuSans-35" x="95.410156"/>
       <use xlink:href="#DejaVuSans-30" x="159.033203"/>
      </g>
     </g>
    </g>
    <g id="ytick_3">
     <g id="line2d_17">
      <path d="M 57.6 215.793758 
L 414.72 215.793758 
" clip-path="url(#pb43937004a)" style="fill: none; stroke: #b0b0b0; stroke-width: 0.8; stroke-linecap: square"/>
     </g>
     <g id="line2d_18">
      <g>
       <use xlink:href="#m82d34d071a" x="57.6" y="215.793758" style="stroke: #000000; stroke-width: 0.8"/>
      </g>
     </g>
     <g id="text_10">
      <!-- 0.75 -->
      <g transform="translate(28.334375 219.592977) scale(0.1 -0.1)">
       <defs>
        <path id="DejaVuSans-37" d="M 525 4666 
L 3525 4666 
L 3525 4397 
L 1831 0 
L 1172 0 
L 2766 4134 
L 525 4134 
L 525 4666 
z
" transform="scale(0.015625)"/>
       </defs>
       <use xlink:href="#DejaVuSans-30"/>
       <use xlink:href="#DejaVuSans-2e" x="63.623047"/>
       <use xlink:href="#DejaVuSans-37" x="95.410156"/>
       <use xlink:href="#DejaVuSans-35" x="159.033203"/>
      </g>
     </g>
    </g>
    <g id="ytick_4">
     <g id="line2d_19">
      <path d="M 57.6 181.019445 
L 414.72 181.019445 
" clip-path="url(#pb43937004a)" style="fill: none; stroke: #b0b0b0; stroke-width: 0.8; stroke-linecap: square"/>
     </g>
     <g id="line2d_20">
      <g>
       <use xlink:href="#m82d34d071a" x="57.6" y="181.019445" style="stroke: #000000; stroke-width: 0.8"/>
      </g>
     </g>
     <g id="text_11">
      <!-- 1.00 -->
      <g transform="translate(28.334375 184.818664) scale(0.1 -0.1)">
       <use xlink:href="#DejaVuSans-31"/>
       <use xlink:href="#DejaVuSans-2e" x="63.623047"/>
       <use xlink:href="#DejaVuSans-30" x="95.410156"/>
       <use xlink:href="#DejaVuSans-30" x="159.033203"/>
      </g>
     </g>
    </g>
    <g id="ytick_5">
     <g id="line2d_21">
      <path d="M 57.6 146.245133 
L 414.72 146.245133 
" clip-path="url(#pb43937004a)" style="fill: none; stroke: #b0b0b0; stroke-width: 0.8; stroke-linecap: square"/>
     </g>
     <g id="line2d_22">
      <g>
       <use xlink:href="#m82d34d071a" x="57.6" y="146.245133" style="stroke: #000000; stroke-width: 0.8"/>
      </g>
     </g>
     <g id="text_12">
      <!-- 1.25 -->
      <g transform="translate(28.334375 150.044351) scale(0.1 -0.1)">
       <use xlink:href="#DejaVuSans-31"/>
       <use xlink:href="#DejaVuSans-2e" x="63.623047"/>
       <use xlink:href="#DejaVuSans-32" x="95.410156"/>
       <use xlink:href="#DejaVuSans-35" x="159.033203"/>
      </g>
     </g>
    </g>
    <g id="ytick_6">
     <g id="line2d_23">
      <path d="M 57.6 111.47082 
L 414.72 111.47082 
" clip-path="url(#pb43937004a)" style="fill: none; stroke: #b0b0b0; stroke-width: 0.8; stroke-linecap: square"/>
     </g>
     <g id="line2d_24">
      <g>
       <use xlink:href="#m82d34d071a" x="57.6" y="111.47082" style="stroke: #000000; stroke-width: 0.8"/>
      </g>
     </g>
     <g id="text_13">
      <!-- 1.50 -->
      <g transform="translate(28.334375 115.270039) scale(0.1 -0.1)">
       <use xlink:href="#DejaVuSans-31"/>
       <use xlink:href="#DejaVuSans-2e" x="63.623047"/>
       <use xlink:href="#DejaVuSans-35" x="95.410156"/>
       <use xlink:href="#DejaVuSans-30" x="159.033203"/>
      </g>
     </g>
    </g>
    <g id="ytick_7">
     <g id="line2d_25">
      <path d="M 57.6 76.696507 
L 414.72 76.696507 
" clip-path="url(#pb43937004a)" style="fill: none; stroke: #b0b0b0; stroke-width: 0.8; stroke-linecap: square"/>
     </g>
     <g id="line2d_26">
      <g>
       <use xlink:href="#m82d34d071a" x="57.6" y="76.696507" style="stroke: #000000; stroke-width: 0.8"/>
      </g>
     </g>
     <g id="text_14">
      <!-- 1.75 -->
      <g transform="translate(28.334375 80.495726) scale(0.1 -0.1)">
       <use xlink:href="#DejaVuSans-31"/>
       <use xlink:href="#DejaVuSans-2e" x="63.623047"/>
       <use xlink:href="#DejaVuSans-37" x="95.410156"/>
       <use xlink:href="#DejaVuSans-35" x="159.033203"/>
      </g>
     </g>
    </g>
    <g id="ytick_8">
     <g id="line2d_27">
      <path d="M 57.6 41.922195 
L 414.72 41.922195 
" clip-path="url(#pb43937004a)" style="fill: none; stroke: #b0b0b0; stroke-width: 0.8; stroke-linecap: square"/>
     </g>
     <g id="line2d_28">
      <g>
       <use xlink:href="#m82d34d071a" x="57.6" y="41.922195" style="stroke: #000000; stroke-width: 0.8"/>
      </g>
     </g>
     <g id="text_15">
      <!-- 2.00 -->
      <g transform="translate(28.334375 45.721413) scale(0.1 -0.1)">
       <use xlink:href="#DejaVuSans-32"/>
       <use xlink:href="#DejaVuSans-2e" x="63.623047"/>
       <use xlink:href="#DejaVuSans-30" x="95.410156"/>
       <use xlink:href="#DejaVuSans-30" x="159.033203"/>
      </g>
     </g>
    </g>
    <g id="text_16">
     <!-- $\sum_i n_i$, пакетов -->
     <g transform="translate(14.334375 207.878) rotate(-90) scale(0.1 -0.1)">
      <defs>
       <path id="DejaVuSansDisplay-2211" d="M 244 6509 
L 5803 6509 
L 5803 5656 
L 1566 5656 
L 4534 2488 
L 1469 -888 
L 5919 -888 
L 5919 -1738 
L 109 -1738 
L 109 -1078 
L 3316 2463 
L 244 5728 
L 244 6509 
z
" transform="scale(0.015625)"/>
       <path id="DejaVuSans-Oblique-69" d="M 1172 4863 
L 1747 4863 
L 1606 4134 
L 1031 4134 
L 1172 4863 
z
M 909 3500 
L 1484 3500 
L 800 0 
L 225 0 
L 909 3500 
z
" transform="scale(0.015625)"/>
       <path id="DejaVuSans-Oblique-6e" d="M 3566 2113 
L 3156 0 
L 2578 0 
L 2988 2091 
Q 3016 2238 3031 2350 
Q 3047 2463 3047 2528 
Q 3047 2791 2881 2937 
Q 2716 3084 2419 3084 
Q 1956 3084 1622 2776 
Q 1288 2469 1184 1941 
L 800 0 
L 225 0 
L 903 3500 
L 1478 3500 
L 1363 2950 
Q 1603 3253 1940 3418 
Q 2278 3584 2650 3584 
Q 3113 3584 3367 3334 
Q 3622 3084 3622 2631 
Q 3622 2519 3608 2391 
Q 3594 2263 3566 2113 
z
" transform="scale(0.015625)"/>
      </defs>
      <use xlink:href="#DejaVuSansDisplay-2211" transform="translate(0 0.296875)"/>
      <use xlink:href="#DejaVuSans-Oblique-69" transform="translate(37 -98.798438) scale(0.7)"/>
      <use xlink:href="#DejaVuSans-Oblique-6e" transform="translate(90.765625 0.296875)"/>
      <use xlink:href="#DejaVuSans-Oblique-69" transform="translate(154.144531 -16.109375) scale(0.7)"/>
      <use xlink:href="#DejaVuSans-2c" transform="translate(176.327148 0.296875)"/>
      <use xlink:href="#DejaVuSans-20" transform="translate(208.114258 0.296875)"/>
      <use xlink:href="#DejaVuSans-43f" transform="translate(239.901367 0.296875)"/>
      <use xlink:href="#DejaVuSans-430" transform="translate(305.282227 0.296875)"/>
      <use xlink:href="#DejaVuSans-43a" transform="translate(366.561523 0.296875)"/>
      <use xlink:href="#DejaVuSans-435" transform="translate(426.961914 0.296875)"/>
      <use xlink:href="#DejaVuSans-442" transform="translate(488.485352 0.296875)"/>
      <use xlink:href="#DejaVuSans-43e" transform="translate(546.737305 0.296875)"/>
      <use xlink:href="#DejaVuSans-432" transform="translate(607.918945 0.296875)"/>
     </g>
    </g>
   </g>
   <g id="line2d_29">
    <path d="M 73.832727 291.833315 
L 73.832727 291.833315 
L 73.832727 291.833315 
L 73.832727 291.833315 
L 73.832727 291.833315 
L 73.832727 291.833315 
L 73.832727 291.833315 
L 73.832727 291.833315 
L 73.832727 291.833315 
L 73.832727 291.833315 
L 138.763636 259.817438 
L 138.763636 259.817438 
L 138.763636 259.817438 
L 138.763636 259.817438 
L 138.763636 259.817438 
L 138.763636 259.817438 
L 138.763636 259.817438 
L 138.763636 259.817438 
L 138.763636 259.817438 
L 138.763636 259.817438 
L 203.694545 227.814559 
L 203.694545 227.814559 
L 203.694545 227.814559 
L 203.694545 227.814559 
L 203.694545 227.814559 
L 203.694545 227.814559 
L 203.694545 227.814559 
L 203.694545 227.814559 
L 203.694545 227.814559 
L 203.694545 227.814559 
L 268.625453 184.238348 
L 268.625453 184.238348 
L 268.625453 184.238348 
L 268.625453 184.238348 
L 268.625453 184.238348 
L 268.625453 184.238348 
L 268.625453 184.238348 
L 268.625453 184.238348 
L 268.625453 184.238348 
L 268.625453 184.238348 
L 333.556362 142.729914 
L 333.556362 142.729914 
L 333.556362 142.729914 
L 333.556362 142.729914 
L 333.556362 142.729914 
L 333.556362 142.729914 
L 333.556362 142.729914 
L 333.556362 142.729914 
L 333.556362 142.729914 
L 333.556362 142.729914 
L 398.487271 71.429494 
L 398.487271 71.429494 
L 398.487271 71.429494 
L 398.487271 71.429494 
L 398.487271 71.429494 
L 398.487271 71.429494 
L 398.487271 71.429494 
L 398.487271 71.429494 
L 398.487271 71.429494 
L 398.487271 71.429494 
" clip-path="url(#pb43937004a)" style="fill: none; stroke: #008000; stroke-width: 1.5; stroke-linecap: square"/>
    <g clip-path="url(#pb43937004a)">
     <use xlink:href="#m66192eed21" x="73.832727" y="291.833315" style="fill: #008000; stroke: #008000"/>
     <use xlink:href="#m66192eed21" x="73.832727" y="291.833315" style="fill: #008000; stroke: #008000"/>
     <use xlink:href="#m66192eed21" x="73.832727" y="291.833315" style="fill: #008000; stroke: #008000"/>
     <use xlink:href="#m66192eed21" x="73.832727" y="291.833315" style="fill: #008000; stroke: #008000"/>
     <use xlink:href="#m66192eed21" x="73.832727" y="291.833315" style="fill: #008000; stroke: #008000"/>
     <use xlink:href="#m66192eed21" x="73.832727" y="291.833315" style="fill: #008000; stroke: #008000"/>
     <use xlink:href="#m66192eed21" x="73.832727" y="291.833315" style="fill: #008000; stroke: #008000"/>
     <use xlink:href="#m66192eed21" x="73.832727" y="291.833315" style="fill: #008000; stroke: #008000"/>
     <use xlink:href="#m66192eed21" x="73.832727" y="291.833315" style="fill: #008000; stroke: #008000"/>
     <use xlink:href="#m66192eed21" x="73.832727" y="291.833315" style="fill: #008000; stroke: #008000"/>
     <use xlink:href="#m66192eed21" x="138.763636" y="259.817438" style="fill: #008000; stroke: #008000"/>
     <use xlink:href="#m66192eed21" x="138.763636" y="259.817438" style="fill: #008000; stroke: #008000"/>
     <use xlink:href="#m66192eed21" x="138.763636" y="259.817438" style="fill: #008000; stroke: #008000"/>
     <use xlink:href="#m66192eed21" x="138.763636" y="259.817438" style="fill: #008000; stroke: #008000"/>
     <use xlink:href="#m66192eed21" x="138.763636" y="259.817438" style="fill: #008000; stroke: #008000"/>
     <use xlink:href="#m66192eed21" x="138.763636" y="259.817438" style="fill: #008000; stroke: #008000"/>
     <use xlink:href="#m66192eed21" x="138.763636" y="259.817438" style="fill: #008000; stroke: #008000"/>
     <use xlink:href="#m66192eed21" x="138.763636" y="259.817438" style="fill: #008000; stroke: #008000"/>
     <use xlink:href="#m66192eed21" x="138.763636" y="259.817438" style="fill: #008000; stroke: #008000"/>
     <use xlink:href="#m66192eed21" x="138.763636" y="259.817438" style="fill: #008000; stroke: #008000"/>
     <use xlink:href="#m66192eed21" x="203.694545" y="227.814559" style="fill: #008000; stroke: #008000"/>
     <use xlink:href="#m66192eed21" x="203.694545" y="227.814559" style="fill: #008000; stroke: #008000"/>
     <use xlink:href="#m66192eed21" x="203.694545" y="227.814559" style="fill: #008000; stroke: #008000"/>
     <use xlink:href="#m66192eed21" x="203.694545" y="227.814559" style="fill: #008000; stroke: #008000"/>
     <use xlink:href="#m66192eed21" x="203.694545" y="227.814559" style="fill: #008000; stroke: #008000"/>
     <use xlink:href="#m66192eed21" x="203.694545" y="227.814559" style="fill: #008000; stroke: #008000"/>
     <use xlink:href="#m66192eed21" x="203.694545" y="227.814559" style="fill: #008000; stroke: #008000"/>
     <use xlink:href="#m66192eed21" x="203.694545" y="227.814559" style="fill: #008000; stroke: #008000"/>
     <use xlink:href="#m66192eed21" x="203.694545" y="227.814559" style="fill: #008000; stroke: #008000"/>
     <use xlink:href="#m66192eed21" x="203.694545" y="227.814559" style="fill: #008000; stroke: #008000"/>
     <use xlink:href="#m66192eed21" x="268.625453" y="184.238348" style="fill: #008000; stroke: #008000"/>
     <use xlink:href="#m66192eed21" x="268.625453" y="184.238348" style="fill: #008000; stroke: #008000"/>
     <use xlink:href="#m66192eed21" x="268.625453" y="184.238348" style="fill: #008000; stroke: #008000"/>
     <use xlink:href="#m66192eed21" x="268.625453" y="184.238348" style="fill: #008000; stroke: #008000"/>
     <use xlink:href="#m66192eed21" x="268.625453" y="184.238348" style="fill: #008000; stroke: #008000"/>
     <use xlink:href="#m66192eed21" x="268.625453" y="184.238348" style="fill: #008000; stroke: #008000"/>
     <use xlink:href="#m66192eed21" x="268.625453" y="184.238348" style="fill: #008000; stroke: #008000"/>
     <use xlink:href="#m66192eed21" x="268.625453" y="184.238348" style="fill: #008000; stroke: #008000"/>
     <use xlink:href="#m66192eed21" x="268.625453" y="184.238348" style="fill: #008000; stroke: #008000"/>
     <use xlink:href="#m66192eed21" x="268.625453" y="184.238348" style="fill: #008000; stroke: #008000"/>
     <use xlink:href="#m66192eed21" x="333.556362" y="142.729914" style="fill: #008000; stroke: #008000"/>
     <use xlink:href="#m66192eed21" x="333.556362" y="142.729914" style="fill: #008000; stroke: #008000"/>
     <use xlink:href="#m66192eed21" x="333.556362" y="142.729914" style="fill: #008000; stroke: #008000"/>
     <use xlink:href="#m66192eed21" x="333.556362" y="142.729914" style="fill: #008000; stroke: #008000"/>
     <use xlink:href="#m66192eed21" x="333.556362" y="142.729914" style="fill: #008000; stroke: #008000"/>
     <use xlink:href="#m66192eed21" x="333.556362" y="142.729914" style="fill: #008000; stroke: #008000"/>
     <use xlink:href="#m66192eed21" x="333.556362" y="142.729914" style="fill: #008000; stroke: #008000"/>
     <use xlink:href="#m66192eed21" x="333.556362" y="142.729914" style="fill: #008000; stroke: #008000"/>
     <use xlink:href="#m66192eed21" x="333.556362" y="142.729914" style="fill: #008000; stroke: #008000"/>
     <use xlink:href="#m66192eed21" x="333.556362" y="142.729914" style="fill: #008000; stroke: #008000"/>
     <use xlink:href="#m66192eed21" x="398.487271" y="71.429494" style="fill: #008000; stroke: #008000"/>
     <use xlink:href="#m66192eed21" x="398.487271" y="71.429494" style="fill: #008000; stroke: #008000"/>
     <use xlink:href="#m66192eed21" x="398.487271" y="71.429494" style="fill: #008000; stroke: #008000"/>
     <use xlink:href="#m66192eed21" x="398.487271" y="71.429494" style="fill: #008000; stroke: #008000"/>
     <use xlink:href="#m66192eed21" x="398.487271" y="71.429494" style="fill: #008000; stroke: #008000"/>
     <use xlink:href="#m66192eed21" x="398.487271" y="71.429494" style="fill: #008000; stroke: #008000"/>
     <use xlink:href="#m66192eed21" x="398.487271" y="71.429494" style="fill: #008000; stroke: #008000"/>
     <use xlink:href="#m66192eed21" x="398.487271" y="71.429494" style="fill: #008000; stroke: #008000"/>
     <use xlink:href="#m66192eed21" x="398.487271" y="71.429494" style="fill: #008000; stroke: #008000"/>
     <use xlink:href="#m66192eed21" x="398.487271" y="71.429494" style="fill: #008000; stroke: #008000"/>
    </g>
   </g>
   <g id="line2d_30">
    <path d="M 73.83273 289.589022 
L 138.763634 256.966544 
L 203.694546 221.986367 
L 268.62545 184.332742 
L 333.556361 143.621758 
L 398.487273 99.377705 
" clip-path="url(#pb43937004a)" style="fill: none; stroke: #0000ff; stroke-width: 1.5; stroke-linecap: square"/>
    <defs>
     <path id="md799247c25" d="M 0 3 
C 0.795609 3 1.55874 2.683901 2.12132 2.12132 
C 2.683901 1.55874 3 0.795609 3 0 
C 3 -0.795609 2.683901 -1.55874 2.12132 -2.12132 
C 1.55874 -2.683901 0.795609 -3 0 -3 
C -0.795609 -3 -1.55874 -2.683901 -2.12132 -2.12132 
C -2.683901 -1.55874 -3 -0.795609 -3 0 
C -3 0.795609 -2.683901 1.55874 -2.12132 2.12132 
C -1.55874 2.683901 -0.795609 3 0 3 
z
" style="stroke: #0000ff"/>
    </defs>
    <g clip-path="url(#pb43937004a)">
     <use xlink:href="#md799247c25" x="73.83273" y="289.589022" style="fill: #0000ff; stroke: #0000ff"/>
     <use xlink:href="#md799247c25" x="138.763634" y="256.966544" style="fill: #0000ff; stroke: #0000ff"/>
     <use xlink:href="#md799247c25" x="203.694546" y="221.986367" style="fill: #0000ff; stroke: #0000ff"/>
     <use xlink:href="#md799247c25" x="268.62545" y="184.332742" style="fill: #0000ff; stroke: #0000ff"/>
     <use xlink:href="#md799247c25" x="333.556361" y="143.621758" style="fill: #0000ff; stroke: #0000ff"/>
     <use xlink:href="#md799247c25" x="398.487273" y="99.377705" style="fill: #0000ff; stroke: #0000ff"/>
    </g>
   </g>
   <g id="line2d_31">
    <path d="M 73.83273 292.038525 
L 138.763634 260.569163 
L 203.694546 224.790568 
L 268.62545 183.313159 
L 333.556361 133.879387 
L 398.487273 72.401184 
" clip-path="url(#pb43937004a)" style="fill: none; stroke: #ff0000; stroke-width: 1.5; stroke-linecap: square"/>
    <defs>
     <path id="m8a8075d899" d="M 0 3 
C 0.795609 3 1.55874 2.683901 2.12132 2.12132 
C 2.683901 1.55874 3 0.795609 3 0 
C 3 -0.795609 2.683901 -1.55874 2.12132 -2.12132 
C 1.55874 -2.683901 0.795609 -3 0 -3 
C -0.795609 -3 -1.55874 -2.683901 -2.12132 -2.12132 
C -2.683901 -1.55874 -3 -0.795609 -3 0 
C -3 0.795609 -2.683901 1.55874 -2.12132 2.12132 
C -1.55874 2.683901 -0.795609 3 0 3 
z
" style="stroke: #ff0000"/>
    </defs>
    <g clip-path="url(#pb43937004a)">
     <use xlink:href="#m8a8075d899" x="73.83273" y="292.038525" style="fill: #ff0000; stroke: #ff0000"/>
     <use xlink:href="#m8a8075d899" x="138.763634" y="260.569163" style="fill: #ff0000; stroke: #ff0000"/>
     <use xlink:href="#m8a8075d899" x="203.694546" y="224.790568" style="fill: #ff0000; stroke: #ff0000"/>
     <use xlink:href="#m8a8075d899" x="268.62545" y="183.313159" style="fill: #ff0000; stroke: #ff0000"/>
     <use xlink:href="#m8a8075d899" x="333.556361" y="133.879387" style="fill: #ff0000; stroke: #ff0000"/>
     <use xlink:href="#m8a8075d899" x="398.487273" y="72.401184" style="fill: #ff0000; stroke: #ff0000"/>
    </g>
   </g>
   <g id="patch_3">
    <path d="M 57.6 307.584 
L 57.6 41.472 
" style="fill: none; stroke: #000000; stroke-width: 0.8; stroke-linejoin: miter; stroke-linecap: square"/>
   </g>
   <g id="patch_4">
    <path d="M 414.72 307.584 
L 414.72 41.472 
" style="fill: none; stroke: #000000; stroke-width: 0.8; stroke-linejoin: miter; stroke-linecap: square"/>
   </g>
   <g id="patch_5">
    <path d="M 57.6 307.584 
L 414.72 307.584 
" style="fill: none; stroke: #000000; stroke-width: 0.8; stroke-linejoin: miter; stroke-linecap: square"/>
   </g>
   <g id="patch_6">
    <path d="M 57.6 41.472 
L 414.72 41.472 
" style="fill: none; stroke: #000000; stroke-width: 0.8; stroke-linejoin: miter; stroke-linecap: square"/>
   </g>
   <g id="text_17">
    <!-- Зависимость м.о. числа требований в сети -->
    <g transform="translate(100.452188 8.307) scale(0.12 -0.12)">
     <defs>
      <path id="DejaVuSans-417" d="M 1828 4750 
Q 2597 4750 3084 4423 
Q 3572 4097 3572 3541 
Q 3572 3153 3350 2886 
Q 3128 2619 2719 2516 
Q 3172 2419 3426 2112 
Q 3681 1806 3681 1356 
Q 3681 638 3126 273 
Q 2572 -91 1828 -91 
Q 1447 -91 1003 12 
Q 559 116 422 203 
L 422 853 
Q 900 575 1164 508 
Q 1428 441 1816 441 
Q 2403 441 2728 666 
Q 3053 891 3053 1356 
Q 3053 1769 2764 2001 
Q 2475 2234 1866 2234 
L 1228 2234 
L 1228 2753 
L 1891 2753 
Q 2450 2753 2697 2939 
Q 2944 3125 2944 3475 
Q 2944 3834 2689 4026 
Q 2434 4219 1816 4219 
Q 1397 4219 1253 4181 
Q 1109 4144 469 3903 
L 469 4519 
Q 822 4644 1190 4697 
Q 1559 4750 1828 4750 
z
" transform="scale(0.015625)"/>
      <path id="DejaVuSans-438" d="M 3578 3500 
L 3578 0 
L 3006 0 
L 3006 2809 
L 1319 0 
L 581 0 
L 581 3500 
L 1153 3500 
L 1153 697 
L 2838 3500 
L 3578 3500 
z
" transform="scale(0.015625)"/>
      <path id="DejaVuSans-43c" d="M 581 3500 
L 1422 3500 
L 2416 1156 
L 3413 3500 
L 4247 3500 
L 4247 0 
L 3669 0 
L 3669 2950 
L 2703 672 
L 2128 672 
L 1159 2950 
L 1159 0 
L 581 0 
L 581 3500 
z
" transform="scale(0.015625)"/>
      <path id="DejaVuSans-44c" d="M 2781 1038 
Q 2781 1319 2576 1466 
Q 2372 1613 1978 1613 
L 1159 1613 
L 1159 459 
L 1978 459 
Q 2372 459 2576 607 
Q 2781 756 2781 1038 
z
M 581 3500 
L 1159 3500 
L 1159 2072 
L 2003 2072 
Q 2672 2072 3033 1817 
Q 3394 1563 3394 1038 
Q 3394 513 3033 256 
Q 2672 0 2003 0 
L 581 0 
L 581 3500 
z
" transform="scale(0.015625)"/>
      <path id="DejaVuSans-447" d="M 2625 0 
L 2625 1472 
L 1553 1472 
Q 1075 1472 756 1769 
Q 469 2038 469 2613 
L 469 3500 
L 1044 3500 
L 1044 2666 
Q 1044 2300 1206 2116 
Q 1372 1931 1697 1931 
L 2625 1931 
L 2625 3500 
L 3200 3500 
L 3200 0 
L 2625 0 
z
" transform="scale(0.015625)"/>
      <path id="DejaVuSans-43b" d="M 238 0 
L 238 478 
Q 806 566 981 959 
Q 1194 1513 1194 2928 
L 1194 3500 
L 3559 3500 
L 3559 0 
L 2984 0 
L 2984 3041 
L 1769 3041 
L 1769 2694 
Q 1769 1344 1494 738 
Q 1200 91 238 0 
z
" transform="scale(0.015625)"/>
      <path id="DejaVuSans-440" d="M 1159 525 
L 1159 -1331 
L 581 -1331 
L 581 3500 
L 1159 3500 
L 1159 2969 
Q 1341 3281 1617 3432 
Q 1894 3584 2278 3584 
Q 2916 3584 3314 3078 
Q 3713 2572 3713 1747 
Q 3713 922 3314 415 
Q 2916 -91 2278 -91 
Q 1894 -91 1617 61 
Q 1341 213 1159 525 
z
M 3116 1747 
Q 3116 2381 2855 2742 
Q 2594 3103 2138 3103 
Q 1681 3103 1420 2742 
Q 1159 2381 1159 1747 
Q 1159 1113 1420 752 
Q 1681 391 2138 391 
Q 2594 391 2855 752 
Q 3116 1113 3116 1747 
z
" transform="scale(0.015625)"/>
      <path id="DejaVuSans-431" d="M 1991 3584 
Q 2741 3584 3169 3096 
Q 3597 2609 3597 1747 
Q 3597 888 3169 398 
Q 2741 -91 1991 -91 
Q 1238 -91 822 384 
Q 406 859 384 1747 
L 366 2463 
Q 350 2834 350 2963 
Q 350 3463 531 3831 
Q 816 4409 1308 4659 
Q 1800 4909 2625 4916 
Q 3006 4919 3175 4972 
L 3334 4516 
Q 3181 4453 3041 4450 
L 2259 4397 
Q 1866 4369 1628 4231 
Q 1006 3866 947 3388 
L 925 3213 
Q 1331 3584 1991 3584 
z
M 1991 3097 
Q 1528 3097 1259 2736 
Q 991 2375 991 1747 
Q 991 1119 1258 758 
Q 1525 397 1991 397 
Q 2450 397 2719 759 
Q 2988 1122 2988 1747 
Q 2988 2369 2719 2733 
Q 2450 3097 1991 3097 
z
" transform="scale(0.015625)"/>
      <path id="DejaVuSans-439" d="M 3578 3500 
L 3578 0 
L 3006 0 
L 3006 2809 
L 1319 0 
L 581 0 
L 581 3500 
L 1153 3500 
L 1153 697 
L 2838 3500 
L 3578 3500 
z
M 1102 4833 
L 1471 4833 
Q 1505 4599 1656 4481 
Q 1808 4364 2080 4364 
Q 2349 4364 2499 4480 
Q 2649 4596 2689 4833 
L 3058 4833 
Q 3027 4386 2780 4161 
Q 2533 3936 2080 3936 
Q 1627 3936 1380 4161 
Q 1133 4386 1102 4833 
z
" transform="scale(0.015625)"/>
     </defs>
     <use xlink:href="#DejaVuSans-417"/>
     <use xlink:href="#DejaVuSans-430" x="64.111328"/>
     <use xlink:href="#DejaVuSans-432" x="125.390625"/>
     <use xlink:href="#DejaVuSans-438" x="184.326172"/>
     <use xlink:href="#DejaVuSans-441" x="249.316406"/>
     <use xlink:href="#DejaVuSans-438" x="304.296875"/>
     <use xlink:href="#DejaVuSans-43c" x="369.287109"/>
     <use xlink:href="#DejaVuSans-43e" x="444.726562"/>
     <use xlink:href="#DejaVuSans-441" x="505.908203"/>
     <use xlink:href="#DejaVuSans-442" x="560.888672"/>
     <use xlink:href="#DejaVuSans-44c" x="619.140625"/>
     <use xlink:href="#DejaVuSans-20" x="678.076172"/>
     <use xlink:href="#DejaVuSans-43c" x="709.863281"/>
     <use xlink:href="#DejaVuSans-2e" x="785.302734"/>
     <use xlink:href="#DejaVuSans-43e" x="817.089844"/>
     <use xlink:href="#DejaVuSans-2e" x="878.271484"/>
     <use xlink:href="#DejaVuSans-20" x="910.058594"/>
     <use xlink:href="#DejaVuSans-447" x="941.845703"/>
     <use xlink:href="#DejaVuSans-438" x="1000.927734"/>
     <use xlink:href="#DejaVuSans-441" x="1065.917969"/>
     <use xlink:href="#DejaVuSans-43b" x="1120.898438"/>
     <use xlink:href="#DejaVuSans-430" x="1184.814453"/>
     <use xlink:href="#DejaVuSans-20" x="1246.09375"/>
     <use xlink:href="#DejaVuSans-442" x="1277.880859"/>
     <use xlink:href="#DejaVuSans-440" x="1336.132812"/>
     <use xlink:href="#DejaVuSans-435" x="1399.609375"/>
     <use xlink:href="#DejaVuSans-431" x="1461.132812"/>
     <use xlink:href="#DejaVuSans-43e" x="1522.802734"/>
     <use xlink:href="#DejaVuSans-432" x="1583.984375"/>
     <use xlink:href="#DejaVuSans-430" x="1642.919922"/>
     <use xlink:href="#DejaVuSans-43d" x="1704.199219"/>
     <use xlink:href="#DejaVuSans-438" x="1769.580078"/>
     <use xlink:href="#DejaVuSans-439" x="1834.570312"/>
     <use xlink:href="#DejaVuSans-20" x="1899.560547"/>
     <use xlink:href="#DejaVuSans-432" x="1931.347656"/>
     <use xlink:href="#DejaVuSans-20" x="1990.283203"/>
     <use xlink:href="#DejaVuSans-441" x="2022.070312"/>
     <use xlink:href="#DejaVuSans-435" x="2077.050781"/>
     <use xlink:href="#DejaVuSans-442" x="2138.574219"/>
     <use xlink:href="#DejaVuSans-438" x="2196.826172"/>
    </g>
    <!-- от интенсивности входящего потока -->
    <g transform="translate(118.575937 21.744375) scale(0.12 -0.12)">
     <defs>
      <path id="DejaVuSans-445" d="M 3513 3500 
L 2247 1797 
L 3578 0 
L 2900 0 
L 1881 1375 
L 863 0 
L 184 0 
L 1544 1831 
L 300 3500 
L 978 3500 
L 1906 2253 
L 2834 3500 
L 3513 3500 
z
" transform="scale(0.015625)"/>
      <path id="DejaVuSans-44f" d="M 1181 2491 
Q 1181 2231 1381 2084 
Q 1581 1938 1953 1938 
L 2728 1938 
L 2728 3041 
L 1953 3041 
Q 1581 3041 1381 2897 
Q 1181 2753 1181 2491 
z
M 363 0 
L 1431 1534 
Q 1069 1616 828 1830 
Q 588 2044 588 2491 
Q 588 2997 923 3248 
Q 1259 3500 1938 3500 
L 3306 3500 
L 3306 0 
L 2728 0 
L 2728 1478 
L 2013 1478 
L 981 0 
L 363 0 
z
" transform="scale(0.015625)"/>
      <path id="DejaVuSans-449" d="M 5275 0 
L 581 0 
L 581 3500 
L 1159 3500 
L 1159 459 
L 2638 459 
L 2638 3500 
L 3216 3500 
L 3216 459 
L 4697 459 
L 4697 3500 
L 5275 3500 
L 5275 459 
L 5734 459 
L 5734 -884 
L 5275 -884 
L 5275 0 
z
" transform="scale(0.015625)"/>
      <path id="DejaVuSans-433" d="M 581 0 
L 581 3500 
L 3050 3500 
L 3050 3041 
L 1159 3041 
L 1159 0 
L 581 0 
z
" transform="scale(0.015625)"/>
     </defs>
     <use xlink:href="#DejaVuSans-43e"/>
     <use xlink:href="#DejaVuSans-442" x="61.181641"/>
     <use xlink:href="#DejaVuSans-20" x="119.433594"/>
     <use xlink:href="#DejaVuSans-438" x="151.220703"/>
     <use xlink:href="#DejaVuSans-43d" x="216.210938"/>
     <use xlink:href="#DejaVuSans-442" x="281.591797"/>
     <use xlink:href="#DejaVuSans-435" x="339.84375"/>
     <use xlink:href="#DejaVuSans-43d" x="401.367188"/>
     <use xlink:href="#DejaVuSans-441" x="466.748047"/>
     <use xlink:href="#DejaVuSans-438" x="521.728516"/>
     <use xlink:href="#DejaVuSans-432" x="586.71875"/>
     <use xlink:href="#DejaVuSans-43d" x="645.654297"/>
     <use xlink:href="#DejaVuSans-43e" x="711.035156"/>
     <use xlink:href="#DejaVuSans-441" x="772.216797"/>
     <use xlink:href="#DejaVuSans-442" x="827.197266"/>
     <use xlink:href="#DejaVuSans-438" x="885.449219"/>
     <use xlink:href="#DejaVuSans-20" x="950.439453"/>
     <use xlink:href="#DejaVuSans-432" x="982.226562"/>
     <use xlink:href="#DejaVuSans-445" x="1041.162109"/>
     <use xlink:href="#DejaVuSans-43e" x="1100.341797"/>
     <use xlink:href="#DejaVuSans-434" x="1161.523438"/>
     <use xlink:href="#DejaVuSans-44f" x="1230.664062"/>
     <use xlink:href="#DejaVuSans-449" x="1290.820312"/>
     <use xlink:href="#DejaVuSans-435" x="1385.009766"/>
     <use xlink:href="#DejaVuSans-433" x="1446.533203"/>
     <use xlink:href="#DejaVuSans-43e" x="1499.072266"/>
     <use xlink:href="#DejaVuSans-20" x="1560.253906"/>
     <use xlink:href="#DejaVuSans-43f" x="1592.041016"/>
     <use xlink:href="#DejaVuSans-43e" x="1657.421875"/>
     <use xlink:href="#DejaVuSans-442" x="1718.603516"/>
     <use xlink:href="#DejaVuSans-43e" x="1776.855469"/>
     <use xlink:href="#DejaVuSans-43a" x="1838.037109"/>
     <use xlink:href="#DejaVuSans-430" x="1898.4375"/>
    </g>
    <!-- при пороге $\tau'_0$= 1 -->
    <g transform="translate(179.94 35.472) scale(0.12 -0.12)">
     <defs>
      <path id="DejaVuSans-Oblique-3c4" d="M 2103 638 
Q 2188 488 2525 488 
L 2800 488 
L 2706 0 
L 2363 0 
Q 1800 0 1600 300 
Q 1403 606 1534 1269 
L 1856 2925 
L 541 2925 
L 653 3500 
L 3881 3500 
L 3769 2925 
L 2444 2925 
L 2113 1234 
Q 2025 781 2103 638 
z
" transform="scale(0.015625)"/>
      <path id="Cmsy10-30" d="M 225 347 
Q 184 359 184 409 
L 966 3316 
Q 1003 3434 1093 3506 
Q 1184 3578 1300 3578 
Q 1450 3578 1564 3479 
Q 1678 3381 1678 3231 
Q 1678 3166 1644 3084 
L 488 319 
Q 466 275 428 275 
Q 394 275 320 306 
Q 247 338 225 347 
z
" transform="scale(0.015625)"/>
      <path id="DejaVuSans-3d" d="M 678 2906 
L 4684 2906 
L 4684 2381 
L 678 2381 
L 678 2906 
z
M 678 1631 
L 4684 1631 
L 4684 1100 
L 678 1100 
L 678 1631 
z
" transform="scale(0.015625)"/>
     </defs>
     <use xlink:href="#DejaVuSans-43f" transform="translate(0 0.584375)"/>
     <use xlink:href="#DejaVuSans-440" transform="translate(65.380859 0.584375)"/>
     <use xlink:href="#DejaVuSans-438" transform="translate(128.857422 0.584375)"/>
     <use xlink:href="#DejaVuSans-20" transform="translate(193.847656 0.584375)"/>
     <use xlink:href="#DejaVuSans-43f" transform="translate(225.634766 0.584375)"/>
     <use xlink:href="#DejaVuSans-43e" transform="translate(291.015625 0.584375)"/>
     <use xlink:href="#DejaVuSans-440" transform="translate(352.197266 0.584375)"/>
     <use xlink:href="#DejaVuSans-43e" transform="translate(415.673828 0.584375)"/>
     <use xlink:href="#DejaVuSans-433" transform="translate(476.855469 0.584375)"/>
     <use xlink:href="#DejaVuSans-435" transform="translate(529.394531 0.584375)"/>
     <use xlink:href="#DejaVuSans-20" transform="translate(590.917969 0.584375)"/>
     <use xlink:href="#DejaVuSans-Oblique-3c4" transform="translate(622.705078 0.584375)"/>
     <use xlink:href="#Cmsy10-30" transform="translate(687.376302 38.865625) scale(0.7)"/>
     <use xlink:href="#DejaVuSans-30" transform="translate(710.310872 -15.821875) scale(0.7)"/>
     <use xlink:href="#DejaVuSans-3d" transform="translate(757.58138 0.584375)"/>
     <use xlink:href="#DejaVuSans-20" transform="translate(841.370443 0.584375)"/>
     <use xlink:href="#DejaVuSans-31" transform="translate(873.157552 0.584375)"/>
    </g>
   </g>
   <g id="legend_1">
    <g id="patch_7">
     <path d="M 64.6 93.506375 
L 215.335938 93.506375 
Q 217.335938 93.506375 217.335938 91.506375 
L 217.335938 48.472 
Q 217.335938 46.472 215.335938 46.472 
L 64.6 46.472 
Q 62.6 46.472 62.6 48.472 
L 62.6 91.506375 
Q 62.6 93.506375 64.6 93.506375 
z
" style="fill: #ffffff; opacity: 0.8; stroke: #cccccc; stroke-linejoin: miter"/>
    </g>
    <g id="line2d_32">
     <path d="M 66.6 54.570438 
L 76.6 54.570438 
L 86.6 54.570438 
" style="fill: none; stroke: #008000; stroke-width: 1.5; stroke-linecap: square"/>
     <g>
      <use xlink:href="#m66192eed21" x="76.6" y="54.570438" style="fill: #008000; stroke: #008000"/>
     </g>
    </g>
    <g id="text_18">
     <!-- ИМ - ненадёжная сеть -->
     <g transform="translate(94.6 58.070438) scale(0.1 -0.1)">
      <defs>
       <path id="DejaVuSans-418" d="M 4159 4666 
L 4159 0 
L 3547 0 
L 3547 3903 
L 1478 0 
L 628 0 
L 628 4666 
L 1241 4666 
L 1241 763 
L 3309 4666 
L 4159 4666 
z
" transform="scale(0.015625)"/>
       <path id="DejaVuSans-41c" d="M 628 4666 
L 1569 4666 
L 2759 1491 
L 3956 4666 
L 4897 4666 
L 4897 0 
L 4281 0 
L 4281 4097 
L 3078 897 
L 2444 897 
L 1241 4097 
L 1241 0 
L 628 0 
L 628 4666 
z
" transform="scale(0.015625)"/>
       <path id="DejaVuSans-2d" d="M 313 2009 
L 1997 2009 
L 1997 1497 
L 313 1497 
L 313 2009 
z
" transform="scale(0.015625)"/>
       <path id="DejaVuSans-451" d="M 3597 1894 
L 3597 1613 
L 953 1613 
Q 991 1019 1311 708 
Q 1631 397 2203 397 
Q 2534 397 2845 478 
Q 3156 559 3463 722 
L 3463 178 
Q 3153 47 2828 -22 
Q 2503 -91 2169 -91 
Q 1331 -91 842 396 
Q 353 884 353 1716 
Q 353 2575 817 3079 
Q 1281 3584 2069 3584 
Q 2775 3584 3186 3129 
Q 3597 2675 3597 1894 
z
M 3022 2063 
Q 3016 2534 2758 2815 
Q 2500 3097 2075 3097 
Q 1594 3097 1305 2825 
Q 1016 2553 972 2059 
L 3022 2063 
z
M 2366 4850 
L 3000 4850 
L 3000 4219 
L 2366 4219 
L 2366 4850 
z
M 1144 4850 
L 1778 4850 
L 1778 4219 
L 1144 4219 
L 1144 4850 
z
" transform="scale(0.015625)"/>
       <path id="DejaVuSans-436" d="M 2597 3500 
L 3169 3500 
L 3169 1856 
L 4697 3500 
L 5366 3500 
L 4109 2153 
L 5547 0 
L 4931 0 
L 3753 1769 
L 3169 1141 
L 3169 0 
L 2597 0 
L 2597 1141 
L 2013 1769 
L 834 0 
L 219 0 
L 1656 2153 
L 400 3500 
L 1069 3500 
L 2597 1856 
L 2597 3500 
z
" transform="scale(0.015625)"/>
      </defs>
      <use xlink:href="#DejaVuSans-418"/>
      <use xlink:href="#DejaVuSans-41c" x="74.804688"/>
      <use xlink:href="#DejaVuSans-20" x="161.083984"/>
      <use xlink:href="#DejaVuSans-2d" x="192.871094"/>
      <use xlink:href="#DejaVuSans-20" x="228.955078"/>
      <use xlink:href="#DejaVuSans-43d" x="260.742188"/>
      <use xlink:href="#DejaVuSans-435" x="326.123047"/>
      <use xlink:href="#DejaVuSans-43d" x="387.646484"/>
      <use xlink:href="#DejaVuSans-430" x="453.027344"/>
      <use xlink:href="#DejaVuSans-434" x="514.306641"/>
      <use xlink:href="#DejaVuSans-451" x="583.447266"/>
      <use xlink:href="#DejaVuSans-436" x="644.970703"/>
      <use xlink:href="#DejaVuSans-43d" x="735.058594"/>
      <use xlink:href="#DejaVuSans-430" x="800.439453"/>
      <use xlink:href="#DejaVuSans-44f" x="861.71875"/>
      <use xlink:href="#DejaVuSans-20" x="921.875"/>
      <use xlink:href="#DejaVuSans-441" x="953.662109"/>
      <use xlink:href="#DejaVuSans-435" x="1008.642578"/>
      <use xlink:href="#DejaVuSans-442" x="1070.166016"/>
      <use xlink:href="#DejaVuSans-44c" x="1128.417969"/>
     </g>
    </g>
    <g id="line2d_33">
     <path d="M 66.6 69.248563 
L 76.6 69.248563 
L 86.6 69.248563 
" style="fill: none; stroke: #0000ff; stroke-width: 1.5; stroke-linecap: square"/>
     <g>
      <use xlink:href="#md799247c25" x="76.6" y="69.248563" style="fill: #0000ff; stroke: #0000ff"/>
     </g>
    </g>
    <g id="text_19">
     <!-- АМ - надёжная сеть -->
     <g transform="translate(94.6 72.748563) scale(0.1 -0.1)">
      <defs>
       <path id="DejaVuSans-410" d="M 2188 4044 
L 1331 1722 
L 3047 1722 
L 2188 4044 
z
M 1831 4666 
L 2547 4666 
L 4325 0 
L 3669 0 
L 3244 1197 
L 1141 1197 
L 716 0 
L 50 0 
L 1831 4666 
z
" transform="scale(0.015625)"/>
      </defs>
      <use xlink:href="#DejaVuSans-410"/>
      <use xlink:href="#DejaVuSans-41c" x="68.408203"/>
      <use xlink:href="#DejaVuSans-20" x="154.6875"/>
      <use xlink:href="#DejaVuSans-2d" x="186.474609"/>
      <use xlink:href="#DejaVuSans-20" x="222.558594"/>
      <use xlink:href="#DejaVuSans-43d" x="254.345703"/>
      <use xlink:href="#DejaVuSans-430" x="319.726562"/>
      <use xlink:href="#DejaVuSans-434" x="381.005859"/>
      <use xlink:href="#DejaVuSans-451" x="450.146484"/>
      <use xlink:href="#DejaVuSans-436" x="511.669922"/>
      <use xlink:href="#DejaVuSans-43d" x="601.757812"/>
      <use xlink:href="#DejaVuSans-430" x="667.138672"/>
      <use xlink:href="#DejaVuSans-44f" x="728.417969"/>
      <use xlink:href="#DejaVuSans-20" x="788.574219"/>
      <use xlink:href="#DejaVuSans-441" x="820.361328"/>
      <use xlink:href="#DejaVuSans-435" x="875.341797"/>
      <use xlink:href="#DejaVuSans-442" x="936.865234"/>
      <use xlink:href="#DejaVuSans-44c" x="995.117188"/>
     </g>
    </g>
    <g id="line2d_34">
     <path d="M 66.6 83.926688 
L 76.6 83.926688 
L 86.6 83.926688 
" style="fill: none; stroke: #ff0000; stroke-width: 1.5; stroke-linecap: square"/>
     <g>
      <use xlink:href="#m8a8075d899" x="76.6" y="83.926688" style="fill: #ff0000; stroke: #ff0000"/>
     </g>
    </g>
    <g id="text_20">
     <!-- АМ - ненадёжная сеть -->
     <g transform="translate(94.6 87.426688) scale(0.1 -0.1)">
      <use xlink:href="#DejaVuSans-410"/>
      <use xlink:href="#DejaVuSans-41c" x="68.408203"/>
      <use xlink:href="#DejaVuSans-20" x="154.6875"/>
      <use xlink:href="#DejaVuSans-2d" x="186.474609"/>
      <use xlink:href="#DejaVuSans-20" x="222.558594"/>
      <use xlink:href="#DejaVuSans-43d" x="254.345703"/>
      <use xlink:href="#DejaVuSans-435" x="319.726562"/>
      <use xlink:href="#DejaVuSans-43d" x="381.25"/>
      <use xlink:href="#DejaVuSans-430" x="446.630859"/>
      <use xlink:href="#DejaVuSans-434" x="507.910156"/>
      <use xlink:href="#DejaVuSans-451" x="577.050781"/>
      <use xlink:href="#DejaVuSans-436" x="638.574219"/>
      <use xlink:href="#DejaVuSans-43d" x="728.662109"/>
      <use xlink:href="#DejaVuSans-430" x="794.042969"/>
      <use xlink:href="#DejaVuSans-44f" x="855.322266"/>
      <use xlink:href="#DejaVuSans-20" x="915.478516"/>
      <use xlink:href="#DejaVuSans-441" x="947.265625"/>
      <use xlink:href="#DejaVuSans-435" x="1002.246094"/>
      <use xlink:href="#DejaVuSans-442" x="1063.769531"/>
      <use xlink:href="#DejaVuSans-44c" x="1122.021484"/>
     </g>
    </g>
   </g>
  </g>
 </g>
 <defs>
  <clipPath id="pb43937004a">
   <rect x="57.6" y="41.472" width="357.12" height="266.112"/>
  </clipPath>
 </defs>
</svg>
